/* XPM */
static const char *menu_xpm[] = {
/* columns rows colors chars-per-pixel */
"19 19 2 1 ",
"  c #D20D1AA32133",
". c #FB07EA63EAD6",
/* pixels */
"......       ......",
"....           ....",
"...             ...",
"..               ..",
"..                .",
".   ...........   .",
"                   ",
"                   ",
"                   ",
"    ...........    ",
"                   ",
"                   ",
"                   ",
".   ...........   .",
".                 .",
"..               ..",
"...             ...",
"....           ....",
"......       ......"
};
