/* XPM */
static const char *menu_xpm[] = {
/* columns rows colors chars-per-pixel */
"22 22 186 2 ",
"   c #74070A",
".  c #6C0D13",
"X  c #7F0D13",
"o  c #7A141B",
"O  c #4E1621",
"+  c #5F1824",
"@  c #621E29",
"#  c #7E1B24",
"$  c #442329",
"%  c #5F222F",
"&  c #4D2839",
"*  c #5F2532",
"=  c #70292D",
"-  c #642835",
";  c #64353E",
":  c #753A3A",
">  c #3E354B",
",  c #293D58",
"<  c #3F3950",
"1  c #303D5A",
"2  c #4C3345",
"3  c #4E3648",
"4  c #4B384A",
"5  c #423E54",
"6  c #613841",
"7  c #2B4057",
"8  c #2E4563",
"9  c #3A4764",
"0  c #3C4B67",
"q  c #30496B",
"w  c #3A506C",
"e  c #355073",
"r  c #3C5575",
"t  c #34537A",
"y  c #3E5A7C",
"u  c #45445D",
"i  c #4D455B",
"p  c #5A4651",
"a  c #574C5A",
"s  c #6C4040",
"d  c #714B4F",
"f  c #6A5454",
"g  c #424A63",
"h  c #4E4B63",
"j  c #485A74",
"k  c #415B7A",
"l  c #545570",
"z  c #555D7B",
"x  c #655F60",
"c  c #616068",
"v  c #6B6B74",
"b  c #6D7578",
"n  c #777175",
"m  c #9D0A0E",
"M  c #930D13",
"N  c #9A0C11",
"B  c #83131A",
"V  c #9C1212",
"C  c #9C141B",
"Z  c #96181E",
"A  c #9E1C1C",
"S  c #A60A0E",
"D  c #AB090C",
"F  c #BE0507",
"G  c #BC0608",
"H  c #B3080A",
"J  c #BA0909",
"K  c #A01213",
"L  c #841923",
"P  c #832021",
"I  c #892222",
"U  c #81252B",
"Y  c #9C2221",
"T  c #803939",
"R  c #8D3D3C",
"E  c #92333A",
"W  c #C40607",
"Q  c #CD0304",
"!  c #D50303",
"~  c #D90304",
"^  c #E40101",
"/  c #EB0000",
"(  c #F40000",
")  c #FD0000",
"_  c #325682",
"`  c #375C85",
"'  c #3B5D85",
"]  c #385C89",
"[  c #3D618B",
"{  c #3E6EA9",
"}  c #405D83",
"|  c #456184",
" . c #4A6484",
".. c #42658E",
"X. c #49658A",
"o. c #4E6A8D",
"O. c #52698C",
"+. c #58698B",
"@. c #416694",
"#. c #466993",
"$. c #4A6D95",
"%. c #426C9E",
"&. c #4E6F98",
"*. c #47709F",
"=. c #4F729F",
"-. c #517096",
";. c #597292",
":. c #52739A",
">. c #56789E",
",. c #64798D",
"<. c #777F82",
"1. c #657B97",
"2. c #657B98",
"3. c #466FA2",
"4. c #4571A5",
"5. c #4C73A5",
"6. c #4473AC",
"7. c #4B75AB",
"8. c #5175A2",
"9. c #5178A3",
"0. c #5B7BA1",
"q. c #547BAA",
"w. c #597EAC",
"e. c #4675B0",
"r. c #4D7BB3",
"t. c #537EB5",
"y. c #7E8386",
"u. c #70839B",
"i. c #5B80AA",
"p. c #5480B5",
"a. c #5B84B5",
"s. c #5683B9",
"d. c #5B86BB",
"f. c #5D89BD",
"g. c #6282A6",
"h. c #748AA4",
"j. c #7B91A9",
"k. c #6187B3",
"l. c #6B8CB6",
"z. c #628ABB",
"x. c #6791BF",
"c. c #7493BC",
"v. c #7D99BE",
"b. c #5F8CC0",
"n. c #628FC2",
"m. c #6492C4",
"M. c #6A95C5",
"N. c #6E99C6",
"B. c #6E99CA",
"V. c #7F9DC3",
"C. c #749ECC",
"Z. c #75A0CE",
"A. c #848585",
"S. c #8E8D8D",
"D. c #838B95",
"F. c #8E8E93",
"G. c #95989B",
"H. c #9A9C9E",
"J. c #8292A5",
"K. c #9C9FA1",
"L. c #8199B6",
"P. c #8A9BB3",
"I. c #9DA1A3",
"U. c #99A0A8",
"Y. c #94A6B8",
"T. c #A2A4A4",
"R. c #A4A6A9",
"E. c #B4B4B3",
"W. c #B4B8BB",
"Q. c #BBBBBA",
"!. c #8BA4C4",
"~. c #88A5CA",
"^. c #8AAACD",
"/. c #95ADCC",
"(. c #98AFCD",
"). c #AEB7C4",
"_. c #AFB9C5",
"`. c #BABDC1",
"'. c #BDC0C2",
"]. c #C4C3C3",
"[. c #C1C6CB",
"{. c #C5C8CB",
"}. c #CBCBCA",
"|. c #C2C9D3",
" X c #CACED4",
".X c None",
/* pixels */
".X.X^.^.^.^.^.^.^.^.^.^.^.^.^.^.^.^.^.^..X.X",
".XC.C.C.N.N.B.Z.Z.Z.Z.Z.Z.Z.Z.B.N.N.B.Z.Z..X",
"g.B.M.i.l i h :.M.B.B.B.B.B.x.O.h i z k.B.g.",
"0.m.n.O.C / ~ - -.N.B.B.B.M. .# ^ ~ U 8.M.0.",
">.n.n.i.4 Q ) Q 4 i.M.B.M.-.- ^ ) H u a.n.>.",
":.b.b.n.$.* ^ ) D u k.m.i.4 Q ) Q 2 9.f.b.:.",
"&.d.f.b.d.k # ( ) B y i.0 S ) ^ % #.f.f.f.$.",
"#.s.s.d.f.p.0 N ) / @ 7 B ( ( o k d.f.s.s.#.",
"@.r.s.s.d.a.9.< J ) Q   ^ ) N 9 q.s.s.s.r...",
"[ 4.#.#.&.$.$.' & ! ) ( ) W > 3.p.t.r.r.r.] ",
"] @.k |  .| | ..e . ( ) / O ` r.r.r.r.e.e.] ",
"_ { 5.q.q.q.q.3.1 m ) ) ( B 8 4.e.6.6.6.{ _ ",
"t 9.).[.[. X).w X ( ( Q ) / + t 8.5.5.3.3.t ",
"u./.`.].].}.G.= ^ ) N $ W ) ! 6 j.(.(././.u.",
"2.!.W.Q.Q.H.s ! ) W p ,.; ~ ) G a L./.^.~.1.",
";.L.`.].T.f J ) ~ : I.{.H.U / ) K n }.|.V.;.",
"o.l.U.K.x V ) ( L A.Q.}.].v M ) ( I S.`.c.o.",
"X.z.0.j o ( ) N c E.Q.Q.Q.J.5 J ) ^ : G.l.X.",
"X.a.t.+.E Z L 5 J.].Q.Q.E.P.:.d Y A R F.k.| ",
"} t.a.!.Y.h.#.8.h.R.K.K.H.h.w.D.<.b A.D.t.} ",
"8 8.t.d.z.k.t.t.q.:.:.:.:.q.t.=.:.$.:.8.5.8 ",
".X, e e e r r r k k k k k k r r r r e e , .X"
};
