/* XPM */
static const char *menu_xpm[] = {
/* columns rows colors chars-per-pixel */
"21 21 3 1 ",
"  c #D20D1AA32133",
". c #FFAFDCDADCDA",
"n c #None",
/* pixels */
"nnnnn           nnnnn",
"nnnn             nnnn",
"nnn               nnn",
"nn                 nn",
"n                   n",
"                     ",
"     ...........     ",
"                     ",
"                     ",
"                     ",
"     ...........     ",
"                     ",
"                     ",
"                     ",
"     ...........     ",
"                     ",
"n                   n",
"nn                 nn",
"nnn               nnn",
"nnnn             nnnn",
"nnnnn           nnnnn"
};
