/* XPM */
static char * quanize_xpm[] = {
"16 14 2 1",
" 	c None",
".	c #000000",
"                ",
"                ",
"      ....      ",
"     ..  ..     ",
"    ..    ..    ",
"    ..    ..    ",
"    ..    ..    ",
"    ..    ..    ",
"    ..    ..    ",
"    ..  . ..    ",
"     .. ...     ",
"      .....     ",
"           .    ",
"                "};
